<?xml version="1.0" encoding="UTF-8" standalone="no"?>
<!DOCTYPE svg PUBLIC "-//W3C//DTD SVG 1.1//EN"
 "http://www.w3.org/Graphics/SVG/1.1/DTD/svg11.dtd">
<!-- Generated by graphviz version 2.43.0 (0)
 -->
<!-- Title: tceetree Pages: 1 -->
<svg width="809pt" height="332pt"
 viewBox="0.00 0.00 809.49 332.00" xmlns="http://www.w3.org/2000/svg" xmlns:xlink="http://www.w3.org/1999/xlink">
<g id="graph0" class="graph" transform="scale(1 1) rotate(0) translate(4 328)">
<title>tceetree</title>
<polygon fill="white" stroke="transparent" points="-4,4 -4,-328 805.49,-328 805.49,4 -4,4"/>
<!-- main -->
<g id="node1" class="node">
<title>main</title>
<ellipse fill="none" stroke="black" cx="314.99" cy="-306" rx="33.6" ry="18"/>
<text text-anchor="middle" x="314.99" y="-302.3" font-family="Times,serif" font-size="14.00">main</text>
</g>
<!-- copy_environment -->
<g id="node2" class="node">
<title>copy_environment</title>
<ellipse fill="none" stroke="black" cx="103.99" cy="-234" rx="95.58" ry="18"/>
<text text-anchor="middle" x="103.99" y="-230.3" font-family="Times,serif" font-size="14.00">copy_environment</text>
</g>
<!-- main&#45;&gt;copy_environment -->
<g id="edge1" class="edge">
<title>main&#45;&gt;copy_environment</title>
<path fill="none" stroke="black" d="M286.97,-295.7C254.38,-284.89 199.82,-266.79 158.73,-253.16"/>
<polygon fill="black" stroke="black" points="159.72,-249.8 149.13,-249.97 157.52,-256.45 159.72,-249.8"/>
</g>
<!-- prompt -->
<g id="node4" class="node">
<title>prompt</title>
<ellipse fill="none" stroke="black" cx="261.99" cy="-234" rx="44.69" ry="18"/>
<text text-anchor="middle" x="261.99" y="-230.3" font-family="Times,serif" font-size="14.00">prompt</text>
</g>
<!-- main&#45;&gt;prompt -->
<g id="edge3" class="edge">
<title>main&#45;&gt;prompt</title>
<path fill="none" stroke="black" d="M302.96,-289.12C296.35,-280.38 288,-269.35 280.57,-259.54"/>
<polygon fill="black" stroke="black" points="283.16,-257.17 274.34,-251.31 277.58,-261.39 283.16,-257.17"/>
</g>
<!-- getline -->
<g id="node5" class="node">
<title>getline</title>
<ellipse fill="none" stroke="black" cx="367.99" cy="-234" rx="42.79" ry="18"/>
<text text-anchor="middle" x="367.99" y="-230.3" font-family="Times,serif" font-size="14.00">getline</text>
</g>
<!-- main&#45;&gt;getline -->
<g id="edge4" class="edge">
<title>main&#45;&gt;getline</title>
<path fill="none" stroke="black" d="M327.02,-289.12C333.63,-280.38 341.98,-269.35 349.41,-259.54"/>
<polygon fill="black" stroke="black" points="352.4,-261.39 355.64,-251.31 346.82,-257.17 352.4,-261.39"/>
</g>
<!-- execute -->
<g id="node6" class="node">
<title>execute</title>
<ellipse fill="none" stroke="black" cx="475.99" cy="-234" rx="46.59" ry="18"/>
<text text-anchor="middle" x="475.99" y="-230.3" font-family="Times,serif" font-size="14.00">execute</text>
</g>
<!-- main&#45;&gt;execute -->
<g id="edge5" class="edge">
<title>main&#45;&gt;execute</title>
<path fill="none" stroke="black" d="M340.5,-293.91C366.42,-282.64 406.92,-265.03 436.89,-252"/>
<polygon fill="black" stroke="black" points="438.45,-255.14 446.22,-247.94 435.66,-248.72 438.45,-255.14"/>
</g>
<!-- environment_length -->
<g id="node3" class="node">
<title>environment_length</title>
<ellipse fill="none" stroke="black" cx="103.99" cy="-162" rx="103.98" ry="18"/>
<text text-anchor="middle" x="103.99" y="-158.3" font-family="Times,serif" font-size="14.00">environment_length</text>
</g>
<!-- copy_environment&#45;&gt;environment_length -->
<g id="edge2" class="edge">
<title>copy_environment&#45;&gt;environment_length</title>
<path fill="none" stroke="black" d="M103.99,-215.7C103.99,-207.98 103.99,-198.71 103.99,-190.11"/>
<polygon fill="black" stroke="black" points="107.49,-190.1 103.99,-180.1 100.49,-190.1 107.49,-190.1"/>
</g>
<!-- launch -->
<g id="node7" class="node">
<title>launch</title>
<ellipse fill="none" stroke="black" cx="475.99" cy="-162" rx="41.69" ry="18"/>
<text text-anchor="middle" x="475.99" y="-158.3" font-family="Times,serif" font-size="14.00">launch</text>
</g>
<!-- execute&#45;&gt;launch -->
<g id="edge6" class="edge">
<title>execute&#45;&gt;launch</title>
<path fill="none" stroke="black" d="M475.99,-215.7C475.99,-207.98 475.99,-198.71 475.99,-190.11"/>
<polygon fill="black" stroke="black" points="479.49,-190.1 475.99,-180.1 472.49,-190.1 479.49,-190.1"/>
</g>
<!-- file_exists -->
<g id="node8" class="node">
<title>file_exists</title>
<ellipse fill="none" stroke="black" cx="109.99" cy="-90" rx="56.59" ry="18"/>
<text text-anchor="middle" x="109.99" y="-86.3" font-family="Times,serif" font-size="14.00">file_exists</text>
</g>
<!-- launch&#45;&gt;file_exists -->
<g id="edge7" class="edge">
<title>launch&#45;&gt;file_exists</title>
<path fill="none" stroke="black" d="M437.45,-155.17C380.16,-146.28 269.29,-128.23 175.99,-108 171.32,-106.99 166.48,-105.87 161.65,-104.71"/>
<polygon fill="black" stroke="black" points="162.32,-101.27 151.77,-102.28 160.65,-108.07 162.32,-101.27"/>
</g>
<!-- find_full_name -->
<g id="node10" class="node">
<title>find_full_name</title>
<ellipse fill="none" stroke="black" cx="261.99" cy="-90" rx="77.19" ry="18"/>
<text text-anchor="middle" x="261.99" y="-86.3" font-family="Times,serif" font-size="14.00">find_full_name</text>
</g>
<!-- launch&#45;&gt;find_full_name -->
<g id="edge9" class="edge">
<title>launch&#45;&gt;find_full_name</title>
<path fill="none" stroke="black" d="M443.49,-150.37C409.25,-139.17 354.8,-121.36 314.46,-108.16"/>
<polygon fill="black" stroke="black" points="315.38,-104.78 304.79,-105 313.2,-111.43 315.38,-104.78"/>
</g>
<!-- fork -->
<g id="node13" class="node">
<title>fork</title>
<ellipse fill="none" stroke="black" cx="386.99" cy="-90" rx="29.5" ry="18"/>
<text text-anchor="middle" x="386.99" y="-86.3" font-family="Times,serif" font-size="14.00">fork</text>
</g>
<!-- launch&#45;&gt;fork -->
<g id="edge12" class="edge">
<title>launch&#45;&gt;fork</title>
<path fill="none" stroke="black" d="M456.68,-145.81C443.69,-135.59 426.42,-122.02 412.33,-110.93"/>
<polygon fill="black" stroke="black" points="414.48,-108.17 404.45,-104.74 410.15,-113.67 414.48,-108.17"/>
</g>
<!-- execve -->
<g id="node14" class="node">
<title>execve</title>
<ellipse fill="none" stroke="black" cx="475.99" cy="-90" rx="42.49" ry="18"/>
<text text-anchor="middle" x="475.99" y="-86.3" font-family="Times,serif" font-size="14.00">execve</text>
</g>
<!-- launch&#45;&gt;execve -->
<g id="edge13" class="edge">
<title>launch&#45;&gt;execve</title>
<path fill="none" stroke="black" d="M475.99,-143.7C475.99,-135.98 475.99,-126.71 475.99,-118.11"/>
<polygon fill="black" stroke="black" points="479.49,-118.1 475.99,-108.1 472.49,-118.1 479.49,-118.1"/>
</g>
<!-- perror -->
<g id="node15" class="node">
<title>perror</title>
<ellipse fill="none" stroke="black" cx="576.99" cy="-90" rx="40.09" ry="18"/>
<text text-anchor="middle" x="576.99" y="-86.3" font-family="Times,serif" font-size="14.00">perror</text>
</g>
<!-- launch&#45;&gt;perror -->
<g id="edge14" class="edge">
<title>launch&#45;&gt;perror</title>
<path fill="none" stroke="black" d="M497.41,-146.15C511.97,-136.06 531.42,-122.58 547.45,-111.47"/>
<polygon fill="black" stroke="black" points="549.72,-114.16 555.95,-105.58 545.74,-108.4 549.72,-114.16"/>
</g>
<!-- exit -->
<g id="node16" class="node">
<title>exit</title>
<ellipse fill="none" stroke="black" cx="663.99" cy="-90" rx="28.7" ry="18"/>
<text text-anchor="middle" x="663.99" y="-86.3" font-family="Times,serif" font-size="14.00">exit</text>
</g>
<!-- launch&#45;&gt;exit -->
<g id="edge15" class="edge">
<title>launch&#45;&gt;exit</title>
<path fill="none" stroke="black" d="M508.17,-150.47C538.73,-140.28 585.85,-124.04 625.99,-108 628.06,-107.17 630.19,-106.3 632.32,-105.4"/>
<polygon fill="black" stroke="black" points="633.83,-108.56 641.61,-101.37 631.05,-102.14 633.83,-108.56"/>
</g>
<!-- waitpid -->
<g id="node17" class="node">
<title>waitpid</title>
<ellipse fill="none" stroke="black" cx="755.99" cy="-90" rx="45.49" ry="18"/>
<text text-anchor="middle" x="755.99" y="-86.3" font-family="Times,serif" font-size="14.00">waitpid</text>
</g>
<!-- launch&#45;&gt;waitpid -->
<g id="edge16" class="edge">
<title>launch&#45;&gt;waitpid</title>
<path fill="none" stroke="black" d="M512.6,-153.29C557.48,-143.65 635.73,-126.17 701.99,-108 705.36,-107.08 708.84,-106.08 712.33,-105.05"/>
<polygon fill="black" stroke="black" points="713.56,-108.34 722.11,-102.09 711.53,-101.63 713.56,-108.34"/>
</g>
<!-- stat -->
<g id="node9" class="node">
<title>stat</title>
<ellipse fill="none" stroke="black" cx="109.99" cy="-18" rx="28.7" ry="18"/>
<text text-anchor="middle" x="109.99" y="-14.3" font-family="Times,serif" font-size="14.00">stat</text>
</g>
<!-- file_exists&#45;&gt;stat -->
<g id="edge8" class="edge">
<title>file_exists&#45;&gt;stat</title>
<path fill="none" stroke="black" d="M109.99,-71.7C109.99,-63.98 109.99,-54.71 109.99,-46.11"/>
<polygon fill="black" stroke="black" points="113.49,-46.1 109.99,-36.1 106.49,-46.1 113.49,-46.1"/>
</g>
<!-- find_variable -->
<g id="node11" class="node">
<title>find_variable</title>
<ellipse fill="none" stroke="black" cx="243.99" cy="-18" rx="70.39" ry="18"/>
<text text-anchor="middle" x="243.99" y="-14.3" font-family="Times,serif" font-size="14.00">find_variable</text>
</g>
<!-- find_full_name&#45;&gt;find_variable -->
<g id="edge10" class="edge">
<title>find_full_name&#45;&gt;find_variable</title>
<path fill="none" stroke="black" d="M257.54,-71.7C255.54,-63.9 253.12,-54.51 250.89,-45.83"/>
<polygon fill="black" stroke="black" points="254.27,-44.92 248.39,-36.1 247.49,-46.66 254.27,-44.92"/>
</g>
<!-- search_for_app -->
<g id="node12" class="node">
<title>search_for_app</title>
<ellipse fill="none" stroke="black" cx="412.99" cy="-18" rx="80.69" ry="18"/>
<text text-anchor="middle" x="412.99" y="-14.3" font-family="Times,serif" font-size="14.00">search_for_app</text>
</g>
<!-- find_full_name&#45;&gt;search_for_app -->
<g id="edge11" class="edge">
<title>find_full_name&#45;&gt;search_for_app</title>
<path fill="none" stroke="black" d="M295.13,-73.64C317.28,-63.37 346.62,-49.77 370.48,-38.7"/>
<polygon fill="black" stroke="black" points="372.07,-41.83 379.67,-34.45 369.13,-35.48 372.07,-41.83"/>
</g>
</g>
</svg>
